<svg width="23" height="22" viewBox="0 0 23 22" fill="none" xmlns="http://www.w3.org/2000/svg">
<g id="Socials" clip-path="url(#clip0_482_899)">
<path id="icon" d="M11.6928 0.247803C8.74043 0.247803 8.36992 0.260712 7.21036 0.313483C6.05307 0.36648 5.26313 0.549703 4.57193 0.818538C3.85694 1.0962 3.25044 1.46764 2.64621 2.07212C2.04152 2.67637 1.6701 3.28289 1.39154 3.99767C1.12203 4.68912 0.938585 5.47931 0.886496 6.63618C0.834633 7.79577 0.821045 8.16652 0.821045 11.1189C0.821045 14.0714 0.834181 14.4408 0.886723 15.6003C0.939945 16.7577 1.12316 17.5476 1.39176 18.2389C1.66965 18.9539 2.04107 19.5604 2.64553 20.1646C3.24954 20.7693 3.85604 21.1417 4.57057 21.4194C5.26222 21.6882 6.05239 21.8714 7.20946 21.9244C8.36901 21.9772 8.7393 21.9901 11.6914 21.9901C14.644 21.9901 15.0133 21.9772 16.1729 21.9244C17.3302 21.8714 18.121 21.6882 18.8127 21.4194C19.5274 21.1417 20.133 20.7693 20.737 20.1646C21.3417 19.5604 21.7132 18.9539 21.9917 18.2391C22.259 17.5476 22.4424 16.7574 22.4968 15.6006C22.5488 14.441 22.5624 14.0714 22.5624 11.1189C22.5624 8.16652 22.5488 7.796 22.4968 6.63641C22.4424 5.47909 22.259 4.68912 21.9917 3.99789C21.7132 3.28289 21.3417 2.67637 20.737 2.07212C20.1324 1.46741 19.5277 1.09598 18.812 0.818538C18.119 0.549703 17.3286 0.36648 16.1713 0.313483C15.0118 0.260712 14.6426 0.247803 11.6894 0.247803H11.6928ZM10.7176 2.20687C11.007 2.20642 11.3299 2.20687 11.6928 2.20687C14.5953 2.20687 14.9393 2.21729 16.0855 2.26938C17.1454 2.31785 17.7206 2.49496 18.1038 2.64376C18.6111 2.8408 18.9728 3.07634 19.3531 3.45683C19.7335 3.83732 19.9691 4.19969 20.1666 4.70701C20.3153 5.08976 20.4927 5.66503 20.5409 6.72496C20.593 7.87096 20.6043 8.21522 20.6043 11.1165C20.6043 14.0177 20.593 14.3619 20.5409 15.5079C20.4924 16.5679 20.3153 17.1431 20.1666 17.5259C19.9695 18.0332 19.7335 18.3945 19.3531 18.7747C18.9726 19.1552 18.6113 19.3907 18.1038 19.5878C17.7211 19.7373 17.1454 19.9139 16.0855 19.9624C14.9395 20.0145 14.5953 20.0258 11.6928 20.0258C8.79003 20.0258 8.44601 20.0145 7.30005 19.9624C6.24014 19.9135 5.6649 19.7364 5.28147 19.5876C4.77417 19.3905 4.41181 19.155 4.03133 18.7745C3.65085 18.394 3.41532 18.0325 3.21783 17.525C3.06904 17.1422 2.89171 16.567 2.84347 15.507C2.79138 14.361 2.78096 14.0168 2.78096 11.1137C2.78096 8.21069 2.79138 7.86825 2.84347 6.72225C2.89193 5.66231 3.06904 5.08705 3.21783 4.70384C3.41486 4.19652 3.65085 3.83415 4.03133 3.45366C4.41181 3.07317 4.77417 2.83763 5.28147 2.64013C5.66467 2.49065 6.24014 2.314 7.30005 2.26531C8.30288 2.22001 8.69151 2.20642 10.7176 2.20416V2.20687ZM17.4955 4.01194C16.7753 4.01194 16.191 4.59558 16.191 5.31602C16.191 6.03623 16.7753 6.62056 17.4955 6.62056C18.2157 6.62056 18.8 6.03623 18.8 5.31602C18.8 4.59581 18.2157 4.01148 17.4955 4.01148V4.01194ZM11.6928 5.53616C8.60975 5.53616 6.11015 8.03584 6.11015 11.1189C6.11015 14.202 8.60975 16.7006 11.6928 16.7006C14.7758 16.7006 17.2745 14.202 17.2745 11.1189C17.2745 8.03584 14.7758 5.53616 11.6928 5.53616ZM11.6928 7.49523C13.6939 7.49523 15.3164 9.11752 15.3164 11.1189C15.3164 13.1201 13.6939 14.7427 11.6928 14.7427C9.6914 14.7427 8.06916 13.1201 8.06916 11.1189C8.06916 9.11752 9.6914 7.49523 11.6928 7.49523Z" fill="#F0F0F0"/>
</g>
<defs>
<clipPath id="clip0_482_899">
<rect width="21.742" height="21.742" fill="white" transform="translate(0.821289 0.248047)"/>
</clipPath>
</defs>
</svg>
