<svg width="36" height="35" viewBox="0 0 36 35" fill="none" xmlns="http://www.w3.org/2000/svg">
<g id="icon/behance">
<path id="vector" d="M11.6519 7.83175C12.4352 7.81721 13.2174 7.89751 13.9814 8.07092C14.6246 8.21136 15.2354 8.47269 15.7811 8.84103C16.2851 9.20731 16.6839 9.69973 16.9375 10.2689C17.2289 10.9687 17.3694 11.7221 17.35 12.48C17.3831 13.3121 17.1706 14.1355 16.739 14.8477C16.2849 15.5203 15.6572 16.0575 14.9225 16.4023C15.9195 16.6711 16.7879 17.2868 17.3716 18.1386C17.9318 19.0412 18.2134 20.0891 18.1811 21.1509C18.1996 21.9976 18.0246 22.8372 17.6693 23.606C17.341 24.2766 16.8602 24.861 16.2654 25.3124C15.6531 25.7589 14.9641 26.0892 14.2325 26.287C13.4739 26.4969 12.6901 26.6023 11.903 26.6003H3.26074V7.83175H11.6519ZM11.1532 15.4229C11.7687 15.4483 12.3745 15.264 12.8716 14.9003C13.1097 14.6884 13.2949 14.4237 13.4125 14.1274C13.53 13.8311 13.5766 13.5114 13.5485 13.1939C13.5644 12.823 13.4906 12.4538 13.3332 12.1176C13.1998 11.8499 12.9922 11.6262 12.7353 11.4731C12.4751 11.3045 12.1827 11.1917 11.8767 11.1418C11.5447 11.0775 11.2068 11.0482 10.8686 11.0545H7.1759V15.4396H11.1532V15.4229ZM11.3685 23.4134C11.7407 23.4185 12.1121 23.3783 12.4746 23.2939C12.8059 23.2207 13.1201 23.0847 13.4002 22.8933C13.6746 22.7019 13.8963 22.4444 14.0448 22.1447C14.2169 21.7624 14.296 21.3448 14.2756 20.9261C14.3129 20.5445 14.2623 20.1595 14.1278 19.8005C13.9933 19.4415 13.7783 19.118 13.4995 18.8549C12.9084 18.4196 12.184 18.2039 11.451 18.2451H7.1759V23.4134H11.3685Z" fill="#F0F0F0"/>
<path id="vector_2" d="M23.7568 23.344C24.0641 23.6288 24.4261 23.8482 24.8208 23.9888C25.2155 24.1294 25.6346 24.1883 26.0528 24.1619C26.7157 24.1787 27.3657 23.977 27.9027 23.5879C28.3396 23.3039 28.6704 22.8835 28.8438 22.3921H31.9662C31.6335 23.791 30.8211 25.0291 29.6702 25.8911C28.5661 26.624 27.2613 26.9951 25.9368 26.953C24.9915 26.9654 24.0533 26.7877 23.178 26.4304C22.3862 26.1002 21.6761 25.6011 21.0972 24.9679C20.5206 24.3045 20.0776 23.5358 19.7926 22.7042C19.4727 21.7747 19.3161 20.7968 19.3298 19.8139C19.324 18.8474 19.4858 17.8873 19.8081 16.9762C20.2412 15.6944 21.0691 14.5827 22.1732 13.8007C23.2772 13.0187 24.6007 12.6065 25.9535 12.6234C26.9523 12.6025 27.94 12.8362 28.8235 13.3026C29.6221 13.7405 30.3111 14.3538 30.8385 15.0963C31.378 15.8755 31.7647 16.75 31.9781 17.6734C32.2121 18.6649 32.2956 19.686 32.2257 20.7024H22.9257C22.8503 21.6573 23.1482 22.6042 23.7568 23.344ZM27.837 16.2061C27.5767 15.9458 27.2637 15.7443 26.919 15.6151C26.5743 15.486 26.2059 15.4322 25.8387 15.4575C25.3515 15.4389 24.8679 15.5468 24.4348 15.7708C24.0915 15.9598 23.7885 16.2141 23.5427 16.5194C23.325 16.8056 23.1627 17.1301 23.0644 17.476C22.9758 17.7646 22.9204 18.0623 22.8994 18.3634H28.6597C28.6095 17.5785 28.3236 16.827 27.8394 16.2073L27.837 16.2061Z" fill="#F0F0F0"/>
<path id="vector_3" d="M29.3753 9.08496H22.1572V10.9309H29.3753V9.08496Z" fill="#F0F0F0"/>
</g>
</svg>
