<svg width="35" height="35" viewBox="0 0 35 35" fill="none" xmlns="http://www.w3.org/2000/svg">
<g id="Group 53">
<mask id="mask0_482_887" style="mask-type:luminance" maskUnits="userSpaceOnUse" x="0" y="0" width="35" height="35">
<g id="clip0_1149_4733">
<path id="Vector" d="M34.9357 0H0.148438V34.7873H34.9357V0Z" fill="white"/>
</g>
</mask>
<g mask="url(#mask0_482_887)">
<g id="Clip path group">
<mask id="mask1_482_887" style="mask-type:luminance" maskUnits="userSpaceOnUse" x="4" y="4" width="27" height="27">
<g id="clip0_2736_15935">
<path id="Vector_2" d="M30.5875 4.34863H4.49707V30.4391H30.5875V4.34863Z" fill="white"/>
</g>
</mask>
<g mask="url(#mask1_482_887)">
<path id="Vector_3" d="M17.542 28.9903C11.1463 28.9903 5.94629 23.7933 5.94629 17.3991C5.94629 10.9958 11.1463 5.79883 17.542 5.79883C23.9378 5.79883 29.1378 10.9958 29.1378 17.3901C29.1378 23.7843 23.9378 28.9903 17.542 28.9903ZM27.3169 18.9773C26.9817 18.8684 24.2549 18.0612 21.1476 18.551C22.4431 22.1064 22.9685 25.0087 23.0681 25.6073C25.2967 24.1108 26.8821 21.7345 27.3169 18.9773ZM21.4103 26.5234C21.2654 25.6527 20.6856 22.6233 19.2995 19.0135C19.2814 19.0226 19.2542 19.0317 19.2361 19.0317C13.6466 20.9817 11.6445 24.8545 11.4633 25.2173C13.1393 26.5234 15.2501 27.3034 17.542 27.3034C18.91 27.3124 20.2236 27.0313 21.4103 26.5234ZM10.186 24.0292C10.4125 23.6482 13.1302 19.1496 18.2396 17.4898C18.3664 17.4445 18.5023 17.4082 18.6291 17.3719C18.3846 16.8096 18.1128 16.2473 17.8229 15.694C12.8766 17.1724 8.0752 17.1089 7.64036 17.0998C7.64036 17.1996 7.6313 17.2994 7.6313 17.3991C7.64036 19.9477 8.60063 22.2696 10.186 24.0292ZM7.84872 15.3766C8.29262 15.3856 12.3693 15.4038 17.0076 14.1703C15.3678 11.2498 13.5922 8.80094 13.3386 8.44721C10.5574 9.75327 8.49192 12.311 7.84872 15.3766ZM15.2229 7.77605C15.4947 8.13884 17.2974 10.5877 18.919 13.5717C22.4431 12.2475 23.9288 10.2521 24.11 9.99815C22.3615 8.44721 20.0605 7.50395 17.542 7.50395C16.7448 7.50395 15.9657 7.60372 15.2229 7.77605ZM25.2061 11.1409C24.9978 11.4221 23.3399 13.5535 19.68 15.05C19.9065 15.5217 20.133 16.0024 20.3413 16.4831C20.4138 16.6554 20.4863 16.8277 20.5588 16.991C23.8563 16.5738 27.1267 17.2449 27.4528 17.3084C27.4256 14.9775 26.5922 12.8279 25.2061 11.1409Z" fill="#F0F0F0"/>
</g>
</g>
</g>
</g>
</svg>
