<svg width="36" height="35" viewBox="0 0 36 35" fill="none" xmlns="http://www.w3.org/2000/svg">
<g id="Frame" clip-path="url(#clip0_482_881)">
<g id="Clip path group">
<mask id="mask0_482_881" style="mask-type:luminance" maskUnits="userSpaceOnUse" x="0" y="0" width="36" height="35">
<g id="clip0_1149_4733">
<path id="Vector" d="M35.5744 0H0.787109V34.7873H35.5744V0Z" fill="white"/>
</g>
</mask>
<g mask="url(#mask0_482_881)">
<g id="Group">
<path id="Vector_2" d="M10.8484 7.24878C10.848 8.01762 10.5422 8.75483 9.9983 9.29821C9.45437 9.8416 8.71687 10.1467 7.94803 10.1463C7.17917 10.1459 6.44197 9.8401 5.89859 9.29617C5.3552 8.75224 5.05015 8.01472 5.05054 7.24588C5.05091 6.47704 5.35671 5.73982 5.90064 5.19644C6.44456 4.65305 7.18207 4.34801 7.95093 4.34839C8.71977 4.34878 9.45697 4.65456 10.0004 5.19849C10.5437 5.74242 10.8488 6.47994 10.8484 7.24878ZM10.9354 12.2929H5.13751V30.4403H10.9354V12.2929ZM20.096 12.2929H14.3271V30.4403H20.038V20.9173C20.038 15.6122 26.952 15.1194 26.952 20.9173V30.4403H32.6774V18.946C32.6774 10.0028 22.4442 10.3361 20.038 14.728L20.096 12.2929Z" fill="#F0F0F0"/>
</g>
</g>
</g>
</g>
<defs>
<clipPath id="clip0_482_881">
<rect width="34.7873" height="34.7873" fill="white" transform="translate(0.787109)"/>
</clipPath>
</defs>
</svg>
