<svg width="29" height="27" viewBox="0 0 29 27" fill="none" xmlns="http://www.w3.org/2000/svg">
<path id="&#226;&#128;&#156;" d="M4.118 27L1.276 23.4414C2.35867 22.4623 3.40267 20.9561 4.408 18.9226C5.37467 16.9268 5.89667 14.4038 5.974 11.3536L1.43205e-06 10.6192L2.36042e-06 -4.44261e-06L11.6 -3.4285e-06L11.6 5.02719C11.6 5.47908 11.5807 6.4205 11.542 7.85146C11.5033 9.32008 11.4647 10.2992 11.426 10.7887C11.3873 11.3159 11.3293 12.2008 11.252 13.4435C11.1747 14.6862 11.0587 15.59 10.904 16.1548C10.7493 16.7197 10.556 17.5105 10.324 18.5272C10.092 19.5439 9.802 20.3536 9.454 20.9561C9.06733 21.5586 8.642 22.2552 8.178 23.046C7.67533 23.8368 7.09533 24.5335 6.438 25.136C5.742 25.7761 4.96867 26.3975 4.118 27ZM21.17 27L18.328 23.4414C19.4107 22.4623 20.4547 20.9561 21.46 18.9226C22.4267 16.9268 22.9487 14.4226 23.026 11.41L17.4 10.6192L17.4 -2.92145e-06L29 -1.90735e-06L29 5.02719C29 7.32427 28.9807 9.07531 28.942 10.2803C28.9033 11.4854 28.7487 13.0293 28.478 14.9121C28.2073 16.8326 27.8207 18.3954 27.318 19.6004C26.7767 20.8054 26.0033 22.0858 24.998 23.4414C23.954 24.7971 22.678 25.9833 21.17 27Z" fill="#F0F0F0"/>
</svg>
