<svg width="29" height="27" viewBox="0 0 29 27" fill="none" xmlns="http://www.w3.org/2000/svg">
<path id="&#226;&#128;&#156;" d="M24.882 0L27.724 3.55858C26.6413 4.53766 25.5973 6.04393 24.592 8.07741C23.6253 10.0732 23.1033 12.5962 23.026 15.6464L29 16.3808V27H17.4V21.9728C17.4 21.5209 17.4193 20.5795 17.458 19.1485C17.4967 17.6799 17.5353 16.7008 17.574 16.2113C17.6127 15.6841 17.6707 14.7992 17.748 13.5565C17.8253 12.3138 17.9413 11.41 18.096 10.8452C18.2507 10.2803 18.444 9.48954 18.676 8.4728C18.908 7.45607 19.198 6.64644 19.546 6.04393C19.9327 5.44142 20.358 4.74477 20.822 3.95397C21.3247 3.16318 21.9047 2.46653 22.562 1.86402C23.258 1.22385 24.0313 0.602511 24.882 0ZM7.83 0L10.672 3.55858C9.58933 4.53766 8.54533 6.04393 7.54 8.07741C6.57333 10.0732 6.05133 12.5774 5.974 15.59L11.6 16.3808V27H0V21.9728C0 19.6757 0.0193333 17.9247 0.058 16.7197C0.0966667 15.5146 0.251333 13.9707 0.522 12.0879C0.792667 10.1674 1.17933 8.6046 1.682 7.39958C2.22333 6.19456 2.99667 4.91423 4.002 3.55858C5.046 2.20293 6.322 1.01674 7.83 0Z" fill="#F0F0F0"/>
</svg>
