<svg width="86" height="86" viewBox="0 0 86 86" fill="none" xmlns="http://www.w3.org/2000/svg">
<g id="Group 2085666718">
<circle id="Ellipse 7339" cx="43" cy="43.0002" r="43" fill="#26232D"/>
<g id="Vector">
<path d="M35.3897 33.5174C34.087 28.7087 37.8062 24.0002 42.9073 24.0002C48.065 24.0002 51.7934 28.807 50.3888 33.6457L47.5283 43.5002H38.0943L35.3897 33.5174Z" fill="#7F45EE"/>
<path d="M50.6103 53.4831C51.913 58.2918 48.1938 63.0002 43.0927 63.0002C37.935 63.0002 34.2066 58.1935 35.6112 53.3548L38.4717 43.5002H47.9057L50.6103 53.4831Z" fill="#7F45EE"/>
<path d="M32.7612 51.6561C27.8292 52.9263 23 49.3001 23 44.3265C23 39.2977 27.93 35.6625 32.8928 37.032L43 39.821V49.0191L32.7612 51.6561Z" fill="#7F45EE"/>
<path d="M53.2388 37.5519C58.1708 36.2817 63 39.908 63 44.8816C63 49.9104 58.07 53.5455 53.1072 52.1761L43 49.387V40.1889L53.2388 37.5519Z" fill="#7F45EE"/>
</g>
</g>
</svg>
