<svg width="56" height="56" viewBox="0 0 56 56" fill="none" xmlns="http://www.w3.org/2000/svg">
<g id="Group 2085666671">
<circle id="Ellipse 7338" cx="28" cy="28" r="28" fill="#7F45EE"/>
<g id="Group 2085666670">
<path id="Vector" d="M14 37C18.4183 37 22 34.0898 22 30.5C22 26.9101 18.4183 24 14 24V28.55C15.3255 28.55 16.4 29.423 16.4 30.5C16.4 31.5769 15.3255 32.45 14 32.45V37Z" fill="#F0F0F0"/>
<path id="Vector_2" d="M42 26.56C40.5353 26.1963 38.9755 26 37.3571 26C28.8756 26 22 31.3905 22 38.04C22 38.7074 22.0693 39.3622 22.2025 40H31.7443C31.4037 39.4013 31.2144 38.738 31.2144 38.04C31.2144 35.3802 33.9645 33.224 37.3571 33.224C39.2114 33.224 40.8737 33.8681 42 34.8865V26.56Z" fill="#F0F0F0"/>
<path id="Vector_3" d="M15 17C15.6951 22.0624 21.0264 26 27.5 26C33.9736 26 39.3049 22.0624 40 17H31.0058C30.4505 18.1206 29.0901 18.9125 27.5 18.9125C25.9099 18.9125 24.5496 18.1206 23.9942 17H15Z" fill="#F0F0F0"/>
</g>
</g>
</svg>
