<svg width="100" height="100" viewBox="0 0 100 100" fill="none" xmlns="http://www.w3.org/2000/svg">
<circle cx="50" cy="50" r="50" fill="#7F45EE"/>
<path fill-rule="evenodd" clip-rule="evenodd" d="M54.8759 58.4583H62.0425C64.0216 58.4583 65.6259 56.854 65.6259 54.875V41.3553C65.6259 39.9297 65.0596 38.5626 64.0516 37.5546L61.4463 34.9493C60.4383 33.9413 59.0711 33.375 57.6456 33.375H47.6322C45.6531 33.375 44.0488 34.9793 44.0488 36.9583V40.5417" fill="#F0F0F0"/>
<path fill-rule="evenodd" clip-rule="evenodd" d="M53.3007 44.7216L50.6954 42.1163C49.6874 41.1083 48.3203 40.542 46.8947 40.542H36.9583C34.9793 40.542 33.375 42.1463 33.375 44.1253V62.042C33.375 64.021 34.9793 65.6253 36.9583 65.6253H51.2917C53.2707 65.6253 54.875 64.021 54.875 62.042V48.5223C54.875 47.0967 54.3087 45.7296 53.3007 44.7216Z" fill="#F0F0F0" stroke="#7F45EE" stroke-linecap="round" stroke-linejoin="round"/>
</svg>
