<svg width="100" height="100" viewBox="0 0 100 100" fill="none" xmlns="http://www.w3.org/2000/svg">
<circle cx="50" cy="50" r="50" fill="#7F45EE"/>
<path fill-rule="evenodd" clip-rule="evenodd" d="M37.45 34C35.5446 34 34 35.5446 34 37.45V46H66V37.45C66 35.5446 64.4554 34 62.55 34H37.45ZM66 48.6667H34V62.55C34 64.4554 35.5446 66 37.45 66H62.55C64.4554 66 66 64.4554 66 62.55V48.6667ZM38.6667 42C39.7712 42 40.6667 41.1046 40.6667 40C40.6667 38.8954 39.7712 38 38.6667 38C37.5621 38 36.6667 38.8954 36.6667 40C36.6667 41.1046 37.5621 42 38.6667 42ZM47.3333 40C47.3333 41.1046 46.4379 42 45.3333 42C44.2288 42 43.3333 41.1046 43.3333 40C43.3333 38.8954 44.2288 38 45.3333 38C46.4379 38 47.3333 38.8954 47.3333 40ZM44.55 53.667H38.1166C37.8681 53.667 37.6666 53.8685 37.6666 54.117V61.8837C37.6666 62.1322 37.8681 62.3337 38.1166 62.3337H44.55C44.7985 62.3337 45 62.1322 45 61.8837V54.117C45 53.8685 44.7985 53.667 44.55 53.667ZM38.1166 52.667C37.3158 52.667 36.6666 53.3162 36.6666 54.117V61.8837C36.6666 62.6845 37.3158 63.3337 38.1166 63.3337H44.55C45.3508 63.3337 46 62.6845 46 61.8837V54.117C46 53.3162 45.3508 52.667 44.55 52.667H38.1166ZM49.1165 53C48.868 53 48.6665 53.2015 48.6665 53.45V54C48.6665 54.2485 48.868 54.45 49.1165 54.45H62.8865C63.135 54.45 63.3365 54.2485 63.3365 54V53.45C63.3365 53.2015 63.135 53 62.8865 53H49.1165ZM48.6665 57.45C48.6665 57.2015 48.868 57 49.1165 57H62.8865C63.135 57 63.3365 57.2015 63.3365 57.45V58C63.3365 58.2485 63.135 58.45 62.8865 58.45H49.1165C48.868 58.45 48.6665 58.2485 48.6665 58V57.45ZM49.1165 61C48.868 61 48.6665 61.2015 48.6665 61.45V62C48.6665 62.2485 48.868 62.45 49.1165 62.45H62.8865C63.135 62.45 63.3365 62.2485 63.3365 62V61.45C63.3365 61.2015 63.135 61 62.8865 61H49.1165Z" fill="#F0F0F0"/>
</svg>
