<svg width="256" height="256" viewBox="0 0 256 256" fill="none" xmlns="http://www.w3.org/2000/svg">
<rect width="256" height="256" rx="20" fill="#040404"/>
<path d="M65.92 144C63.3216 144 61.0519 143.363 59.1111 142.089C57.1703 140.815 55.6626 139.061 54.5879 136.828C53.5293 134.577 53 131.994 53 129.08C53 126.113 53.5454 123.513 54.6361 121.279C55.7268 119.046 57.2425 117.301 59.1833 116.044C61.1241 114.788 63.3697 114.159 65.92 114.159C68.5345 114.159 70.8121 114.796 72.7529 116.07C74.6937 117.344 76.2014 119.107 77.2761 121.358C78.3508 123.592 78.8881 126.165 78.8881 129.08C78.8881 132.011 78.3427 134.603 77.252 136.854C76.1774 139.088 74.6697 140.841 72.7288 142.115C70.788 143.372 68.5184 144 65.92 144ZM65.92 138.084C68.2297 138.084 69.946 137.247 71.0687 135.571C72.1915 133.896 72.7529 131.732 72.7529 129.08C72.7529 126.34 72.1835 124.159 71.0447 122.536C69.9059 120.895 68.1976 120.075 65.92 120.075C64.3641 120.075 63.081 120.459 62.0705 121.227C61.076 121.977 60.3382 123.033 59.857 124.394C59.3758 125.738 59.1352 127.3 59.1352 129.08C59.1352 131.819 59.7046 134.01 60.8434 135.65C61.9983 137.273 63.6905 138.084 65.92 138.084Z" fill="white"/>
<path d="M81.7831 143.215V114.945H86.9078V121.829L86.2823 120.939C86.6031 119.997 87.0281 119.142 87.5574 118.374C88.1028 117.589 88.7524 116.943 89.5063 116.437C90.1479 115.966 90.8536 115.599 91.6235 115.337C92.4095 115.058 93.2114 114.892 94.0295 114.84C94.8475 114.77 95.6415 114.805 96.4114 114.945V120.834C95.6415 120.59 94.7512 120.511 93.7407 120.599C92.7463 120.686 91.8481 120.991 91.0461 121.515C90.2441 121.986 89.5865 122.588 89.0732 123.321C88.576 124.054 88.207 124.892 87.9664 125.834C87.7259 126.759 87.6056 127.762 87.6056 128.844V143.215H81.7831Z" fill="white"/>
<path d="M107.69 144C104.482 144 101.875 143.215 99.8703 141.644C97.8653 140.074 96.6463 137.866 96.2132 135.022L102.132 134.027C102.437 135.423 103.11 136.522 104.153 137.325C105.195 138.128 106.511 138.529 108.099 138.529C109.494 138.529 110.569 138.233 111.323 137.639C112.093 137.028 112.478 136.2 112.478 135.153C112.478 134.507 112.333 133.992 112.044 133.608C111.772 133.207 111.162 132.823 110.216 132.456C109.27 132.09 107.818 131.628 105.861 131.069C103.68 130.441 101.947 129.769 100.664 129.054C99.3811 128.321 98.4588 127.457 97.8974 126.462C97.336 125.467 97.0553 124.263 97.0553 122.85C97.0553 121.087 97.4804 119.552 98.3305 118.243C99.1806 116.934 100.368 115.931 101.891 115.233C103.415 114.517 105.212 114.159 107.281 114.159C109.302 114.159 111.09 114.5 112.646 115.18C114.218 115.861 115.485 116.829 116.447 118.086C117.41 119.342 118.003 120.817 118.228 122.51L112.309 123.661C112.165 122.457 111.659 121.506 110.793 120.808C109.943 120.11 108.804 119.717 107.377 119.63C106.014 119.543 104.915 119.77 104.081 120.311C103.247 120.834 102.83 121.576 102.83 122.536C102.83 123.077 102.998 123.539 103.335 123.923C103.672 124.307 104.345 124.691 105.356 125.075C106.382 125.459 107.906 125.93 109.927 126.488C111.996 127.064 113.648 127.727 114.883 128.478C116.135 129.211 117.033 130.092 117.578 131.121C118.14 132.151 118.42 133.399 118.42 134.865C118.42 137.709 117.466 139.943 115.557 141.566C113.664 143.189 111.042 144 107.69 144Z" fill="white"/>
<path d="M132.76 144C130.162 144 127.892 143.363 125.952 142.089C124.011 140.815 122.503 139.061 121.428 136.828C120.37 134.577 119.84 131.994 119.84 129.08C119.84 126.113 120.386 123.513 121.477 121.279C122.567 119.046 124.083 117.301 126.024 116.044C127.965 114.788 130.21 114.159 132.76 114.159C135.375 114.159 137.653 114.796 139.593 116.07C141.534 117.344 143.042 119.107 144.117 121.358C145.191 123.592 145.729 126.165 145.729 129.08C145.729 132.011 145.183 134.603 144.093 136.854C143.018 139.088 141.51 140.841 139.569 142.115C137.629 143.372 135.359 144 132.76 144ZM132.76 138.084C135.07 138.084 136.786 137.247 137.909 135.571C139.032 133.896 139.593 131.732 139.593 129.08C139.593 126.34 139.024 124.159 137.885 122.536C136.746 120.895 135.038 120.075 132.76 120.075C131.205 120.075 129.921 120.459 128.911 121.227C127.916 121.977 127.179 123.033 126.697 124.394C126.216 125.738 125.976 127.3 125.976 129.08C125.976 131.819 126.545 134.01 127.684 135.65C128.839 137.273 130.531 138.084 132.76 138.084Z" fill="white"/>
<path d="M166.596 143.215V129.603C166.596 128.713 166.54 127.727 166.428 126.645C166.315 125.563 166.051 124.525 165.634 123.53C165.233 122.518 164.623 121.689 163.805 121.044C163.003 120.398 161.913 120.075 160.533 120.075C159.795 120.075 159.065 120.206 158.344 120.468C157.622 120.73 156.964 121.183 156.371 121.829C155.793 122.457 155.328 123.33 154.975 124.447C154.622 125.546 154.446 126.959 154.446 128.687L151.006 127.09C151.006 124.682 151.431 122.501 152.281 120.546C153.147 118.592 154.414 117.039 156.082 115.887C157.75 114.718 159.803 114.133 162.241 114.133C164.166 114.133 165.754 114.482 167.005 115.18C168.256 115.878 169.251 116.768 169.989 117.85C170.726 118.932 171.272 120.084 171.625 121.305C171.977 122.527 172.202 123.687 172.298 124.787C172.411 125.869 172.467 126.75 172.467 127.431V143.215H166.596ZM148.576 143.215V114.945H153.748V123.714H154.446V143.215H148.576Z" fill="white"/>
<circle cx="194.867" cy="128" r="16" fill="#7F45EE"/>
</svg>
